<mxfile host="app.diagrams.net" modified="2024-01-31T03:52:48.277Z" agent="Mozilla/5.0 (Macintosh; Intel Mac OS X 10_15_7) AppleWebKit/537.36 (KHTML, like Gecko) Chrome/121.0.0.0 Safari/537.36 Edg/121.0.0.0" etag="eQc7Zw9r4jrQX-nHvzuG" version="23.0.2" type="github">
  <diagram id="prtHgNgQTEPvFCAcTncT" name="Page-1">
    <mxGraphModel dx="1194" dy="648" grid="1" gridSize="10" guides="1" tooltips="1" connect="1" arrows="1" fold="1" page="1" pageScale="1" pageWidth="827" pageHeight="1169" math="0" shadow="0">
      <root>
        <mxCell id="0" />
        <mxCell id="1" parent="0" />
        <mxCell id="dNxyNK7c78bLwvsdeMH5-19" value="红包奖励发放" style="swimlane;html=1;childLayout=stackLayout;resizeParent=1;resizeParentMax=0;horizontal=0;startSize=20;horizontalStack=0;" parent="1" vertex="1">
          <mxGeometry x="160" y="120" width="900" height="480" as="geometry">
            <mxRectangle x="120" y="120" width="40" height="110" as="alternateBounds" />
          </mxGeometry>
        </mxCell>
        <mxCell id="Ynf15G16kTFjkOFmhl-k-17" value="订单中心" style="swimlane;html=1;startSize=20;horizontal=0;" vertex="1" parent="dNxyNK7c78bLwvsdeMH5-19">
          <mxGeometry x="20" width="880" height="120" as="geometry" />
        </mxCell>
        <mxCell id="Ynf15G16kTFjkOFmhl-k-24" value="下单成功" style="ellipse;whiteSpace=wrap;html=1;" vertex="1" parent="Ynf15G16kTFjkOFmhl-k-17">
          <mxGeometry x="40" y="30" width="40" height="40" as="geometry" />
        </mxCell>
        <mxCell id="dNxyNK7c78bLwvsdeMH5-20" value="会员中心" style="swimlane;html=1;startSize=20;horizontal=0;" parent="dNxyNK7c78bLwvsdeMH5-19" vertex="1">
          <mxGeometry x="20" y="120" width="880" height="120" as="geometry" />
        </mxCell>
        <mxCell id="dNxyNK7c78bLwvsdeMH5-23" value="首次注册" style="ellipse;whiteSpace=wrap;html=1;" parent="dNxyNK7c78bLwvsdeMH5-20" vertex="1">
          <mxGeometry x="40" y="40" width="40" height="40" as="geometry" />
        </mxCell>
        <mxCell id="dNxyNK7c78bLwvsdeMH5-21" value="活动中心" style="swimlane;html=1;startSize=20;horizontal=0;" parent="dNxyNK7c78bLwvsdeMH5-19" vertex="1">
          <mxGeometry x="20" y="240" width="880" height="120" as="geometry" />
        </mxCell>
        <mxCell id="Ynf15G16kTFjkOFmhl-k-33" style="edgeStyle=orthogonalEdgeStyle;rounded=0;orthogonalLoop=1;jettySize=auto;html=1;exitX=1;exitY=0.5;exitDx=0;exitDy=0;entryX=0;entryY=0.5;entryDx=0;entryDy=0;" edge="1" parent="dNxyNK7c78bLwvsdeMH5-21" source="Ynf15G16kTFjkOFmhl-k-25" target="Ynf15G16kTFjkOFmhl-k-32">
          <mxGeometry relative="1" as="geometry" />
        </mxCell>
        <mxCell id="Ynf15G16kTFjkOFmhl-k-25" value="计算红包金额" style="rounded=1;whiteSpace=wrap;html=1;absoluteArcSize=1;arcSize=0;strokeWidth=2;" vertex="1" parent="dNxyNK7c78bLwvsdeMH5-21">
          <mxGeometry x="60" y="30" width="90" height="60" as="geometry" />
        </mxCell>
        <mxCell id="Ynf15G16kTFjkOFmhl-k-32" value="生成红包发放记录" style="rounded=1;whiteSpace=wrap;html=1;absoluteArcSize=1;arcSize=0;strokeWidth=2;" vertex="1" parent="dNxyNK7c78bLwvsdeMH5-21">
          <mxGeometry x="220" y="30" width="90" height="60" as="geometry" />
        </mxCell>
        <mxCell id="dNxyNK7c78bLwvsdeMH5-22" value="奖励中心" style="swimlane;html=1;startSize=20;horizontal=0;" parent="dNxyNK7c78bLwvsdeMH5-19" vertex="1">
          <mxGeometry x="20" y="360" width="880" height="120" as="geometry" />
        </mxCell>
        <mxCell id="Ynf15G16kTFjkOFmhl-k-35" value="红包发放接口" style="rounded=1;whiteSpace=wrap;html=1;absoluteArcSize=1;arcSize=0;strokeWidth=2;" vertex="1" parent="dNxyNK7c78bLwvsdeMH5-22">
          <mxGeometry x="60" y="40" width="90" height="60" as="geometry" />
        </mxCell>
        <mxCell id="Ynf15G16kTFjkOFmhl-k-40" value="" style="edgeStyle=orthogonalEdgeStyle;rounded=0;orthogonalLoop=1;jettySize=auto;html=1;" edge="1" parent="dNxyNK7c78bLwvsdeMH5-22" source="Ynf15G16kTFjkOFmhl-k-37" target="Ynf15G16kTFjkOFmhl-k-39">
          <mxGeometry relative="1" as="geometry" />
        </mxCell>
        <mxCell id="Ynf15G16kTFjkOFmhl-k-37" value="红包发放队列" style="strokeWidth=2;html=1;shape=mxgraph.flowchart.sequential_data;whiteSpace=wrap;" vertex="1" parent="dNxyNK7c78bLwvsdeMH5-22">
          <mxGeometry x="185" y="40" width="60" height="60" as="geometry" />
        </mxCell>
        <mxCell id="Ynf15G16kTFjkOFmhl-k-38" style="edgeStyle=orthogonalEdgeStyle;rounded=0;orthogonalLoop=1;jettySize=auto;html=1;exitX=1;exitY=0.5;exitDx=0;exitDy=0;entryX=0;entryY=0.5;entryDx=0;entryDy=0;entryPerimeter=0;" edge="1" parent="dNxyNK7c78bLwvsdeMH5-22" source="Ynf15G16kTFjkOFmhl-k-35" target="Ynf15G16kTFjkOFmhl-k-37">
          <mxGeometry relative="1" as="geometry" />
        </mxCell>
        <mxCell id="Ynf15G16kTFjkOFmhl-k-43" style="edgeStyle=orthogonalEdgeStyle;rounded=0;orthogonalLoop=1;jettySize=auto;html=1;exitX=1;exitY=0.5;exitDx=0;exitDy=0;entryX=0;entryY=0.5;entryDx=0;entryDy=0;" edge="1" parent="dNxyNK7c78bLwvsdeMH5-22" source="Ynf15G16kTFjkOFmhl-k-39" target="Ynf15G16kTFjkOFmhl-k-41">
          <mxGeometry relative="1" as="geometry" />
        </mxCell>
        <mxCell id="Ynf15G16kTFjkOFmhl-k-39" value="记录现金红包奖励发放流水" style="whiteSpace=wrap;html=1;strokeWidth=2;" vertex="1" parent="dNxyNK7c78bLwvsdeMH5-22">
          <mxGeometry x="295" y="40" width="95" height="60" as="geometry" />
        </mxCell>
        <mxCell id="Ynf15G16kTFjkOFmhl-k-41" value="申请发放进入打款计划" style="whiteSpace=wrap;html=1;strokeWidth=2;" vertex="1" parent="dNxyNK7c78bLwvsdeMH5-22">
          <mxGeometry x="450" y="40" width="95" height="60" as="geometry" />
        </mxCell>
        <mxCell id="Ynf15G16kTFjkOFmhl-k-48" style="edgeStyle=orthogonalEdgeStyle;rounded=0;orthogonalLoop=1;jettySize=auto;html=1;exitX=1;exitY=0.5;exitDx=0;exitDy=0;" edge="1" parent="dNxyNK7c78bLwvsdeMH5-22" source="Ynf15G16kTFjkOFmhl-k-44">
          <mxGeometry relative="1" as="geometry">
            <mxPoint x="730" y="70" as="targetPoint" />
          </mxGeometry>
        </mxCell>
        <mxCell id="Ynf15G16kTFjkOFmhl-k-44" value="打款状态查询" style="whiteSpace=wrap;html=1;strokeWidth=2;" vertex="1" parent="dNxyNK7c78bLwvsdeMH5-22">
          <mxGeometry x="600" y="40" width="95" height="60" as="geometry" />
        </mxCell>
        <mxCell id="Ynf15G16kTFjkOFmhl-k-49" value="红包发放状态回写" style="whiteSpace=wrap;html=1;strokeWidth=2;" vertex="1" parent="dNxyNK7c78bLwvsdeMH5-22">
          <mxGeometry x="730" y="40" width="95" height="60" as="geometry" />
        </mxCell>
        <mxCell id="Ynf15G16kTFjkOFmhl-k-27" style="edgeStyle=orthogonalEdgeStyle;rounded=0;orthogonalLoop=1;jettySize=auto;html=1;exitX=1;exitY=0.5;exitDx=0;exitDy=0;entryX=0.44;entryY=-0.01;entryDx=0;entryDy=0;entryPerimeter=0;" edge="1" parent="dNxyNK7c78bLwvsdeMH5-19" source="dNxyNK7c78bLwvsdeMH5-23" target="Ynf15G16kTFjkOFmhl-k-25">
          <mxGeometry relative="1" as="geometry" />
        </mxCell>
        <mxCell id="Ynf15G16kTFjkOFmhl-k-28" style="edgeStyle=orthogonalEdgeStyle;rounded=0;orthogonalLoop=1;jettySize=auto;html=1;exitX=1;exitY=0.5;exitDx=0;exitDy=0;entryX=0.5;entryY=0;entryDx=0;entryDy=0;" edge="1" parent="dNxyNK7c78bLwvsdeMH5-19" source="Ynf15G16kTFjkOFmhl-k-24" target="Ynf15G16kTFjkOFmhl-k-25">
          <mxGeometry relative="1" as="geometry" />
        </mxCell>
        <mxCell id="Ynf15G16kTFjkOFmhl-k-36" style="edgeStyle=orthogonalEdgeStyle;rounded=0;orthogonalLoop=1;jettySize=auto;html=1;exitX=0.5;exitY=1;exitDx=0;exitDy=0;" edge="1" parent="dNxyNK7c78bLwvsdeMH5-19" source="Ynf15G16kTFjkOFmhl-k-32" target="Ynf15G16kTFjkOFmhl-k-35">
          <mxGeometry relative="1" as="geometry" />
        </mxCell>
      </root>
    </mxGraphModel>
  </diagram>
</mxfile>
